<svg width="80" height="80" viewBox="0 0 256 256" fill="none" xmlns="http://www.w3.org/2000/svg">
  <rect width="256" height="256" rx="51" fill="#18181F"/>
  <g transform="translate(38 38) scale(0.7)">
    <path fill="#C4A862" d="M225.6 62.64l-88-48.17a19.91 19.91 0 0 0-19.2 0l-88 48.17A20 20 0 0 0 20 80.19v95.62a20 20 0 0 0 10.4 17.55l88 48.17a19.89 19.89 0 0 0 19.2 0l88-48.17a20 20 0 0 0 10.4-17.55V80.19a20 20 0 0 0-10.4-17.55M128 36.57L200 76l-72 39.4L56 76ZM44 96.79l72 39.4v76.67l-72-39.42Zm96 116.07v-76.67l72-39.4v76.65Z"/>
  </g>
</svg>
