<svg viewBox="0 0 450 100" fill="currentColor" xmlns="http://www.w3.org/2000/svg">
  <path fill-rule="evenodd" d="M0 10h74v24H48v56H24V34H0zM24 10l14 0-14 22z"/>
  <circle cx="124" cy="50" r="28" fill="none" stroke="currentColor" stroke-width="24"/>
  <circle cx="214" cy="50" r="28" fill="none" stroke="currentColor" stroke-width="24"/>
  <circle cx="304" cy="50" r="28" fill="none" stroke="#D97706" stroke-width="24"/>
  <rect x="354" y="10" width="24" height="80"/>
  <path d="M428 26c0-6-4-8-12-8-12 0-18 6-18 16s6 12 16 16 20 8 20 18-8 16-18 16c-10 0-18-6-18-14" fill="none" stroke="currentColor" stroke-width="20" stroke-linecap="round"/>
</svg>
