<svg viewBox="0 0 410 100" fill="currentColor" xmlns="http://www.w3.org/2000/svg">
  <path fill-rule="evenodd" d="M0 10h74v24H48v56H24V34H0zM24 10l14 0-14 22z"/>
  <circle cx="118" cy="56" r="22" fill="none" stroke="currentColor" stroke-width="24"/>
  <circle cx="196" cy="56" r="22" fill="none" stroke="currentColor" stroke-width="24"/>
  <circle cx="274" cy="56" r="22" fill="none" stroke="#D97706" stroke-width="24"/>
  <rect x="318" y="10" width="24" height="80"/>
  <path d="M384 38c0-4-3-6-9-6-9 0-13 4-13 12s4 9 12 12 15 6 15 13-6 12-13 12c-7 0-13-4-13-10" fill="none" stroke="currentColor" stroke-width="20" stroke-linecap="round"/>
</svg>
